<?xml version="1.0" encoding="UTF-8" standalone="no"?>
<!-- Created with Inkscape (http://www.inkscape.org/) -->

<svg
   xmlns:osb="http://www.openswatchbook.org/uri/2009/osb"
   xmlns:dc="http://purl.org/dc/elements/1.1/"
   xmlns:cc="http://creativecommons.org/ns#"
   xmlns:rdf="http://www.w3.org/1999/02/22-rdf-syntax-ns#"
   xmlns:svg="http://www.w3.org/2000/svg"
   xmlns="http://www.w3.org/2000/svg"
   xmlns:xlink="http://www.w3.org/1999/xlink"
   xmlns:sodipodi="http://sodipodi.sourceforge.net/DTD/sodipodi-0.dtd"
   xmlns:inkscape="http://www.inkscape.org/namespaces/inkscape"
   width="564.04608"
   height="563.62445"
   id="svg2"
   version="1.1"
   inkscape:version="0.48.5 r10040"
   sodipodi:docname="radialmenu_with icons.svg"
   style="enable-background:new"
   inkscape:export-filename="/home/korrus/Projects/Progeny/art/textures/gui/radialmenu_with icons.png"
   inkscape:export-xdpi="47.869999"
   inkscape:export-ydpi="47.869999">
  <defs
     id="defs4">
    <linearGradient
       id="linearGradient6305">
      <stop
         id="stop6307"
         offset="0"
         style="stop-color:#dcdcdc;stop-opacity:0.2820513;" />
      <stop
         id="stop6309"
         offset="1"
         style="stop-color:#acacac;stop-opacity:1" />
    </linearGradient>
    <linearGradient
       id="linearGradient3805"
       osb:paint="solid">
      <stop
         style="stop-color:#ffffff;stop-opacity:1;"
         offset="0"
         id="stop3807" />
    </linearGradient>
    <linearGradient
       id="linearGradient4235"
       inkscape:collect="always">
      <stop
         style="stop-color:#c6c6c6;stop-opacity:0.17948718;"
         offset="0"
         id="stop4237" />
      <stop
         id="stop4239"
         offset="0.54768938"
         style="stop-color:#ffffff;stop-opacity:0.46666667;" />
      <stop
         id="stop4241"
         offset="1"
         style="stop-color:#ffffff;stop-opacity:0.62393165;" />
    </linearGradient>
    <linearGradient
       id="linearGradient5468">
      <stop
         style="stop-color:#dcdcdc;stop-opacity:0.2820513;"
         offset="0"
         id="stop5470" />
      <stop
         style="stop-color:#acacac;stop-opacity:1;"
         offset="1"
         id="stop5472" />
    </linearGradient>
    <linearGradient
       id="linearGradient5456">
      <stop
         style="stop-color:#ffffff;stop-opacity:1;"
         offset="0"
         id="stop5458" />
      <stop
         style="stop-color:#ffffff;stop-opacity:1;"
         offset="1"
         id="stop5460" />
    </linearGradient>
    <linearGradient
       inkscape:collect="always"
       id="linearGradient5444">
      <stop
         id="stop5452"
         offset="0"
         style="stop-color:#c6c6c6;stop-opacity:0.17948718;" />
      <stop
         style="stop-color:#ffffff;stop-opacity:0.46666667;"
         offset="0.5"
         id="stop5454" />
      <stop
         style="stop-color:#ffffff;stop-opacity:0.62393165;"
         offset="1"
         id="stop5448" />
    </linearGradient>
    <linearGradient
       id="linearGradient5430"
       osb:paint="gradient">
      <stop
         style="stop-color:#ffffff;stop-opacity:1;"
         offset="0"
         id="stop5432" />
      <stop
         style="stop-color:#ffffff;stop-opacity:0;"
         offset="1"
         id="stop5434" />
    </linearGradient>
    <linearGradient
       id="linearGradient5204"
       osb:paint="solid">
      <stop
         style="stop-color:#ffffff;stop-opacity:1;"
         offset="0"
         id="stop5206" />
    </linearGradient>
    <filter
       inkscape:label="Fancy blur"
       inkscape:menu="Blurs"
       inkscape:menu-tooltip="Smooth colorized contour which allows desaturation and hue rotation"
       color-interpolation-filters="sRGB"
       id="filter5246">
      <feGaussianBlur
         stdDeviation="5"
         result="result1"
         id="feGaussianBlur5248" />
      <feComposite
         operator="arithmetic"
         k2="2"
         in="result1"
         in2="result1"
         id="feComposite5250"
         k1="0"
         k3="0"
         k4="0" />
    </filter>
    <filter
       inkscape:collect="always"
       id="filter5418"
       color-interpolation-filters="sRGB">
      <feGaussianBlur
         inkscape:collect="always"
         stdDeviation="1.4074137"
         id="feGaussianBlur5420" />
    </filter>
    <filter
       inkscape:collect="always"
       id="filter5426"
       color-interpolation-filters="sRGB">
      <feGaussianBlur
         inkscape:collect="always"
         stdDeviation="2.9859375"
         id="feGaussianBlur5428" />
    </filter>
    <radialGradient
       inkscape:collect="always"
       xlink:href="#linearGradient5444"
       id="radialGradient5450"
       cx="284.56787"
       cy="359.93954"
       fx="284.56787"
       fy="359.93954"
       r="107.32468"
       gradientTransform="matrix(1,0,0,1.0144496,0,-5.2009753)"
       gradientUnits="userSpaceOnUse" />
    <radialGradient
       inkscape:collect="always"
       xlink:href="#linearGradient5456"
       id="radialGradient5462"
       cx="290"
       cy="354.86218"
       fx="290"
       fy="354.86218"
       r="203.85423"
       gradientTransform="matrix(1,0,0,0.98791141,0,4.2897823)"
       gradientUnits="userSpaceOnUse" />
    <radialGradient
       inkscape:collect="always"
       xlink:href="#linearGradient5456"
       id="radialGradient5464"
       gradientUnits="userSpaceOnUse"
       gradientTransform="matrix(1,0,0,0.98791141,0,4.2897823)"
       cx="290"
       cy="354.86218"
       fx="290"
       fy="354.86218"
       r="203.85423" />
    <radialGradient
       inkscape:collect="always"
       xlink:href="#linearGradient5456"
       id="radialGradient5466"
       gradientUnits="userSpaceOnUse"
       gradientTransform="matrix(1,0,0,0.98791141,0,4.2897823)"
       cx="290"
       cy="354.86218"
       fx="290"
       fy="354.86218"
       r="203.85423" />
    <radialGradient
       inkscape:collect="always"
       xlink:href="#linearGradient5468"
       id="radialGradient5474"
       cx="290"
       cy="354.86218"
       fx="290"
       fy="354.86218"
       r="200.50636"
       gradientTransform="matrix(1,0,0,0.9874998,0,4.4358482)"
       gradientUnits="userSpaceOnUse" />
    <radialGradient
       inkscape:collect="always"
       xlink:href="#linearGradient4235"
       id="radialGradient4233"
       gradientUnits="userSpaceOnUse"
       gradientTransform="matrix(1,0,0,1.0144496,0,-5.2009753)"
       cx="284.56787"
       cy="359.93954"
       fx="284.56787"
       fy="359.93954"
       r="107.32468" />
    <radialGradient
       inkscape:collect="always"
       xlink:href="#linearGradient5468"
       id="radialGradient4261"
       gradientUnits="userSpaceOnUse"
       gradientTransform="matrix(1,0,0,0.9874998,0,4.4358482)"
       cx="290"
       cy="354.86218"
       fx="290"
       fy="354.86218"
       r="200.50636" />
    <linearGradient
       inkscape:collect="always"
       xlink:href="#linearGradient3805"
       id="linearGradient3809"
       x1="91.708755"
       y1="355.01001"
       x2="489.83377"
       y2="355.01001"
       gradientUnits="userSpaceOnUse" />
    <radialGradient
       inkscape:collect="always"
       xlink:href="#linearGradient6305"
       id="radialGradient6301"
       gradientUnits="userSpaceOnUse"
       gradientTransform="matrix(0.99786969,-0.00270962,5.9031123e-4,0.48821915,0.40830989,182.39746)"
       cx="290"
       cy="354.86218"
       fx="290"
       fy="354.86218"
       r="200.50636" />
    <radialGradient
       inkscape:collect="always"
       xlink:href="#linearGradient5468"
       id="radialGradient6303"
       gradientUnits="userSpaceOnUse"
       gradientTransform="matrix(0.49632709,-0.00105193,6.1318605e-4,0.98749433,145.84755,4.7428496)"
       cx="290"
       cy="354.86218"
       fx="290"
       fy="354.86218"
       r="200.50636" />
  </defs>
  <sodipodi:namedview
     id="base"
     pagecolor="#717171"
     bordercolor="#666666"
     borderopacity="1.0"
     inkscape:pageopacity="0"
     inkscape:pageshadow="2"
     inkscape:zoom="0.9672561"
     inkscape:cx="246.78545"
     inkscape:cy="328.88028"
     inkscape:document-units="px"
     inkscape:current-layer="layer3"
     showgrid="false"
     inkscape:window-width="1920"
     inkscape:window-height="1020"
     inkscape:window-x="-2"
     inkscape:window-y="-3"
     inkscape:window-maximized="1"
     showguides="false"
     inkscape:guide-bbox="true"
     units="pt"
     inkscape:object-paths="false"
     inkscape:snap-bbox="true"
     inkscape:snap-grids="false"
     fit-margin-top="0"
     fit-margin-left="0"
     fit-margin-right="0"
     fit-margin-bottom="0">
    <inkscape:grid
       type="xygrid"
       id="grid5270"
       empspacing="5"
       visible="true"
       enabled="true"
       snapvisiblegridlinesonly="true"
       originx="-8.8950701px"
       originy="-415.62824px" />
  </sodipodi:namedview>
  <metadata
     id="metadata7">
    <rdf:RDF>
      <cc:Work
         rdf:about="">
        <dc:format>image/svg+xml</dc:format>
        <dc:type
           rdf:resource="http://purl.org/dc/dcmitype/StillImage" />
        <dc:title></dc:title>
      </cc:Work>
    </rdf:RDF>
  </metadata>
  <g
     inkscape:label="Blank menu"
     inkscape:groupmode="layer"
     id="layer1"
     transform="translate(-8.8950701,-73.109428)"
     sodipodi:insensitive="true">
    <path
       id="path5244"
       d="m 289.5,155.21875 c -109.93679,0 -199.0625,89.12571 -199.0625,199.0625 0,109.93679 89.12571,199.0625 199.0625,199.0625 109.93679,0 199.0625,-89.12571 199.0625,-199.0625 0,-109.93679 -89.12571,-199.0625 -199.0625,-199.0625 z m 0,99.0625 c 55.22847,0 100,44.77152 100,100 0,55.22848 -44.77153,100 -100,100 -55.22847,0 -100,-44.77152 -100,-100 0,-55.22848 44.77153,-100 100,-100 z"
       style="opacity:0.60337554;fill:#000000;fill-opacity:0.24456524;fill-rule:evenodd;stroke:none;filter:url(#filter5426)"
       inkscape:connector-curvature="0"
       transform="matrix(1.0061643,0,0,1.0061643,-2.5133064,0.5448652)" />
    <path
       style="opacity:0.60337554;fill:url(#linearGradient3809);fill-opacity:1;fill-rule:evenodd;stroke:none"
       d="m 290.77126,155.94751 c -109.93679,0 -199.062502,89.12571 -199.062502,199.0625 0,109.93679 89.125712,199.0625 199.062502,199.0625 109.93679,0 199.0625,-89.12571 199.0625,-199.0625 0,-109.93679 -89.12571,-199.0625 -199.0625,-199.0625 z m 0,99.0625 c 55.22847,0 100,44.77152 100,100 0,55.22848 -44.77153,100 -100,100 -55.22847,0 -100,-44.77152 -100,-100 0,-55.22848 44.77153,-100 100,-100 z"
       id="path2985"
       inkscape:connector-curvature="0" />
    <path
       transform="matrix(1.8179754,0,0,1.7920657,-226.56613,-290.0253)"
       d="m 391.83005,359.93954 c 0,60.09575 -48.02291,108.81298 -107.26218,108.81298 -59.23926,0 -107.26218,-48.71723 -107.26218,-108.81298 0,-60.09574 48.02292,-108.81297 107.26218,-108.81297 59.23927,0 107.26218,48.71723 107.26218,108.81297 z"
       sodipodi:ry="108.81297"
       sodipodi:rx="107.26218"
       sodipodi:cy="359.93954"
       sodipodi:cx="284.56787"
       id="path5256"
       style="opacity:0.60337554;fill:url(#radialGradient4233);fill-opacity:1;fill-rule:evenodd;stroke:#000000;stroke-width:0.05540246;stroke-miterlimit:4;stroke-opacity:0.22826089;stroke-dasharray:none"
       sodipodi:type="arc" />
    <path
       sodipodi:type="arc"
       style="opacity:0.60337554;fill:#9d9d9d;fill-opacity:0.06521738;stroke:none"
       id="path5282"
       sodipodi:cx="184.2231"
       sodipodi:cy="165.9713"
       sodipodi:rx="77.490669"
       sodipodi:ry="74.200966"
       d="m 261.71377,165.9713 c 0,40.98006 -34.69376,74.20096 -77.49067,74.20096 -42.79692,0 -77.49067,-33.2209 -77.49067,-74.20096 0,-40.98006 34.69375,-74.200968 77.49067,-74.200968 42.79691,0 77.49067,33.220908 77.49067,74.200968 z"
       transform="matrix(1.290478,0,0,1.3476914,53.035402,131.33192)" />
    <g
       style="opacity:0.60337554;stroke:url(#radialGradient5462);stroke-opacity:0.85326089;filter:url(#filter5418)"
       transform="matrix(0.70084028,-0.70084028,0.70964515,0.70964515,-164.08277,306.64334)"
       id="g5332">
      <path
         style="fill:none;stroke:url(#radialGradient5464);stroke-width:1.01273942px;stroke-linecap:butt;stroke-linejoin:miter;stroke-opacity:0.85326089"
         d="m 90,354.28125 400,0"
         id="path5334"
         inkscape:connector-curvature="0" />
      <path
         style="fill:none;stroke:url(#radialGradient5466);stroke-width:1px;stroke-linecap:butt;stroke-linejoin:miter;stroke-opacity:0.85326089"
         d="m 290,157.36218 0,395"
         id="path5336"
         inkscape:connector-curvature="0" />
    </g>
    <g
       id="g5276"
       transform="matrix(0.70487722,-0.70273536,0.7137328,0.71156403,-166.92408,306.31365)"
       style="opacity:0.60337554;stroke:url(#radialGradient4261);stroke-opacity:0.90217393">
      <path
         inkscape:connector-curvature="0"
         id="path5272"
         d="m 90,354.28125 400,0"
         style="fill:none;stroke:url(#radialGradient6303);stroke-width:1.01273942px;stroke-linecap:butt;stroke-linejoin:miter;stroke-opacity:0.90217393" />
      <path
         inkscape:connector-curvature="0"
         id="path5274"
         d="m 290,157.36218 0,395"
         style="fill:none;stroke:url(#radialGradient6301);stroke-width:1px;stroke-linecap:butt;stroke-linejoin:miter;stroke-opacity:0.90217393" />
    </g>
    <path
       sodipodi:type="arc"
       style="opacity:0.60337554;fill:#929292;fill-opacity:0.125;fill-rule:evenodd"
       id="path5252"
       sodipodi:cx="284.56787"
       sodipodi:cy="359.93954"
       sodipodi:rx="107.26218"
       sodipodi:ry="108.81297"
       d="m 391.83005,359.93954 c 0,60.09575 -48.02291,108.81298 -107.26218,108.81298 -59.23926,0 -107.26218,-48.71723 -107.26218,-108.81298 0,-60.09574 48.02292,-108.81297 107.26218,-108.81297 59.23927,0 107.26218,48.71723 107.26218,108.81297 z"
       transform="matrix(0.97890984,0,0,0.96495847,12.204969,7.6832988)" />
  </g>
  <g
     inkscape:groupmode="layer"
     id="layer3"
     inkscape:label="Icons"
     style="opacity:0.98000004"
     transform="translate(-8.8950701,-64.107307)">
    <rect
       style="fill:#acacac;fill-opacity:0;fill-rule:evenodd"
       id="rect6319"
       width="199.63837"
       height="198.19775"
       x="-245.07855"
       y="257.65808"
       transform="matrix(0.70710678,-0.70710678,0.70710678,0.70710678,0,-9.0021212)"
       ry="0" />
    <rect
       ry="0"
       transform="matrix(0.70710678,-0.70710678,0.70710678,0.70710678,0,-9.0021212)"
       y="257.57507"
       x="-45.455639"
       height="198.19775"
       width="199.63837"
       id="rect6323"
       style="fill:#acacac;fill-opacity:0;fill-rule:evenodd" />
    <rect
       ry="0"
       transform="matrix(0.70710678,-0.70710678,0.70710678,0.70710678,0,0)"
       y="451.21707"
       x="-238.33192"
       height="198.19775"
       width="199.63837"
       id="rect6328"
       style="fill:#acacac;fill-opacity:0;fill-rule:evenodd" />
    <rect
       style="fill:#acacac;fill-opacity:0;fill-rule:evenodd"
       id="rect6330"
       width="199.63837"
       height="198.19775"
       x="-38.709007"
       y="451.13406"
       transform="matrix(0.70710678,-0.70710678,0.70710678,0.70710678,0,0)"
       ry="0" />
    <g
       id="g6336"
       transform="matrix(1.32,0,0,1.32,-56.098766,-116.48633)"
       style="fill:#c8c8c8;fill-opacity:0.91372549;stroke:#000000;stroke-width:0.37878788;stroke-miterlimit:4;stroke-opacity:0.51086958;stroke-dasharray:none">
      <rect
         ry="2.7857146"
         y="340.97702"
         x="144.55138"
         height="30"
         width="10"
         id="rect6316"
         style="fill:#c8c8c8;fill-opacity:0.91372549;fill-rule:evenodd;stroke:#000000;stroke-width:0.37878788;stroke-miterlimit:4;stroke-opacity:0.51086958;stroke-dasharray:none" />
      <path
         transform="matrix(0.28036408,0,0,0.28448707,108.02964,252.12578)"
         d="m 165.9333,285.5462 c 0,9.70668 -7.98453,17.57549 -17.83395,17.57549 -9.84942,0 -17.83395,-7.86881 -17.83395,-17.57549 0,-9.70667 7.98453,-17.57549 17.83395,-17.57549 9.84942,0 17.83395,7.86882 17.83395,17.57549 z"
         sodipodi:ry="17.575491"
         sodipodi:rx="17.833954"
         sodipodi:cy="285.5462"
         sodipodi:cx="148.09935"
         id="path6334"
         style="fill:#c8c8c8;fill-opacity:0.91372549;fill-rule:evenodd;stroke:#000000;stroke-width:1.34123111;stroke-miterlimit:4;stroke-opacity:0.51086958;stroke-dasharray:none"
         sodipodi:type="arc" />
    </g>
    <path
       style="fill:#c8c8c8;fill-opacity:0.97647059;fill-rule:evenodd;stroke:#000000;stroke-width:0.5;stroke-miterlimit:4;stroke-opacity:0.5098038;stroke-dasharray:none"
       d="m 287.51586,167.33198 c -1.76591,0 -3.1875,1.26868 -3.1875,2.84375 l 0,19.90625 -19.875,0 c -1.57507,0 -2.84375,1.42159 -2.84375,3.1875 l 0,6.03125 c 0,1.76591 1.26868,3.1875 2.84375,3.1875 l 19.875,0 0,19.875 c 0,1.57507 1.42159,2.84375 3.1875,2.84375 l 6.03125,0 c 1.76591,0 3.1875,-1.26868 3.1875,-2.84375 l 0,-19.875 19.90625,0 c 1.57507,0 2.84375,-1.42159 2.84375,-3.1875 l 0,-6.03125 c 0,-1.76591 -1.26868,-3.1875 -2.84375,-3.1875 l -19.90625,0 0,-19.90625 c 0,-1.57507 -1.42159,-2.84375 -3.1875,-2.84375 l -6.03125,0 z"
       id="rect6475"
       inkscape:connector-curvature="0" />
    <g
       id="g8153"
       transform="translate(-7.9521248,9.3754388e-6)"
       style="fill:#c8c8c8;fill-opacity:0.97647059;stroke:#000000;stroke-width:0.5;stroke-miterlimit:4;stroke-opacity:0.5098038;stroke-dasharray:none">
      <path
         sodipodi:nodetypes="sccscaccccssssccccacsccccccs"
         inkscape:connector-curvature="0"
         id="path6482"
         d="m 451.49771,327.84582 c -0.46815,0.006 -0.93961,0.1992 -1.29375,0.5625 l -0.19687,0.19688 c -0.18083,0.31201 -0.28125,0.69905 -0.28125,1.09687 l 0,8.79065 c 0,0 -0.0131,0.39529 -0.14539,0.51492 -0.16537,0.14955 -0.65872,0.11631 -0.65872,0.11631 l -4.06152,0 -11.16562,0 -6.4125,0 -11.50313,0 c -1.41755,0 -2.55937,1.27943 -2.55937,2.86875 l 0,5.42812 c 0,1.58932 1.14182,2.86875 2.55937,2.86875 l 10.85625,0 7.05938,0 11.16562,0 4.01791,0 c 0,0 0.54579,-0.0416 0.71687,0.13085 0.17873,0.18012 0.13085,0.74991 0.13085,0.74991 l 0,9.04737 c 0,0.69942 0.32263,1.32519 0.81562,1.6875 0.10556,0.0608 0.19632,0.1308 0.30938,0.16875 0.64534,0.21657 1.37573,0.0436 1.88437,-0.47813 l 15.35625,-15.75 c 0.70828,-0.72659 0.69847,-1.87922 -0.0281,-2.5875 l -15.2719,-14.87812 c -0.3633,-0.35414 -0.82559,-0.54035 -1.29375,-0.53438 z"
         style="fill:#c8c8c8;fill-opacity:0.97647059;fill-rule:evenodd;stroke:#000000;stroke-width:0.5;stroke-miterlimit:4;stroke-opacity:0.5098038;stroke-dasharray:none" />
      <path
         sodipodi:type="arc"
         style="fill:#c8c8c8;fill-opacity:0.97647059;fill-rule:evenodd;stroke:#000000;stroke-width:1.49025679;stroke-miterlimit:4;stroke-opacity:0.5098038;stroke-dasharray:none"
         id="path8149"
         sodipodi:cx="148.09935"
         sodipodi:cy="285.5462"
         sodipodi:rx="17.833954"
         sodipodi:ry="17.575491"
         d="m 165.9333,285.5462 c 0,9.70668 -7.98453,17.57549 -17.83395,17.57549 -9.84942,0 -17.83395,-7.86881 -17.83395,-17.57549 0,-9.70667 7.98453,-17.57549 17.83395,-17.57549 9.84942,0 17.83395,7.86882 17.83395,17.57549 z"
         transform="matrix(0.33307253,0,0,0.33797064,427.61837,248.49919)" />
    </g>
    <path
       style="fill:#c8c8c8;fill-opacity:0.90196078;fill-rule:evenodd;stroke:#000000;stroke-width:0.47750026;stroke-miterlimit:4;stroke-opacity:0.5098038;stroke-dasharray:none"
       d="m 264.52695,467.73485 c -3.87835,0 -7.02258,2.79904 -7.02258,6.2611 l 0,27.41344 0.25035,10.57696 -9.86762,8.34733 24.11368,-6.09187 49.07344,0 c 3.87834,0 7.02257,-2.79905 7.02257,-6.2611 l 0,-33.98476 c 0,-3.46206 -3.14423,-6.2611 -7.02257,-6.2611 z"
       id="rect9751"
       inkscape:connector-curvature="0"
       sodipodi:nodetypes="ssccccsssss" />
  </g>
</svg>
